<svg id="hexo" viewBox="0 0 128 128" xmlns="http://www.w3.org/2000/svg">
  <g id="border">
    <path stroke="#00FF00" fill="none" stroke-width="1" d="m62.11167,10.03457c1.16887,-0.67782 2.60778,-0.67782 3.77665,0l43.64866,25.33943c1.16887,0.67782 1.88833,1.93093 1.88833,3.28847l0,50.67505c0,1.35754 -0.71945,2.61064 -1.88833,3.28847l-43.64866,25.33943c-1.16887,0.67782 -2.60778,0.67782 -3.77665,0l-43.64866,-25.33943c-1.16887,-0.67782 -1.88833,-1.93093 -1.88833,-3.28847l0,-50.67505c0,-1.35754 0.71945,-2.61064 1.88833,-3.28847l43.64866,-25.33943z" id="svg_1"/>
  </g>
  <svg id="emoji" x="28" y="28" viewBox="0 0 128 128" xmlns="http://www.w3.org/2000/svg">
  <g id="line">
    <path fill="none" stroke="#00FF00" stroke-linecap="round" stroke-linejoin="round" stroke-width="2" d="M38.7,38.8 c1.2,7.9,7,20.5,8.9,21.3H36.2l0,0H24.9c2-0.9,8.4-15.1,9-22.8"/>
    <circle cx="36.2" cy="19.6" r="11.5" fill="none" stroke="#00FF00" stroke-linecap="round" stroke-linejoin="round" stroke-width="2"/>
    <circle cx="53.4" cy="36.7" r="11.5" fill="none" stroke="#00FF00" stroke-linecap="round" stroke-linejoin="round" stroke-width="2"/>
    <circle cx="19" cy="36.7" r="11.5" fill="none" stroke="#00FF00" stroke-linecap="round" stroke-linejoin="round" stroke-width="2"/>
  </g>
</svg>
</svg>
