<svg id="hexo" viewBox="0 0 128 128" xmlns="http://www.w3.org/2000/svg">
  <g id="border">
    <path stroke="#00FF00" fill="none" stroke-width="1" d="m62.11167,10.03457c1.16887,-0.67782 2.60778,-0.67782 3.77665,0l43.64866,25.33943c1.16887,0.67782 1.88833,1.93093 1.88833,3.28847l0,50.67505c0,1.35754 -0.71945,2.61064 -1.88833,3.28847l-43.64866,25.33943c-1.16887,0.67782 -2.60778,0.67782 -3.77665,0l-43.64866,-25.33943c-1.16887,-0.67782 -1.88833,-1.93093 -1.88833,-3.28847l0,-50.67505c0,-1.35754 0.71945,-2.61064 1.88833,-3.28847l43.64866,-25.33943z" id="svg_1"/>
  </g>
  <svg id="emoji" x="28" y="28" viewBox="0 0 128 128" xmlns="http://www.w3.org/2000/svg">
  <g id="line">
    <line x1="20.2069" x2="36.3713" y1="60.9583" y2="11.0176" fill="none" stroke="#00FF00" stroke-linecap="round" stroke-linejoin="round" stroke-width="2"/>
    <line x1="34.0242" x2="50.1886" y1="60.9583" y2="11.0176" fill="none" stroke="#00FF00" stroke-linecap="round" stroke-linejoin="round" stroke-width="2"/>
    <line x1="34.7586" x2="48.5759" y1="16" y2="16" fill="none" stroke="#00FF00" stroke-linecap="round" stroke-linejoin="round" stroke-width="2"/>
    <line x1="30.9853" x2="44.8026" y1="27.658" y2="27.658" fill="none" stroke="#00FF00" stroke-linecap="round" stroke-linejoin="round" stroke-width="2"/>
    <line x1="37.2559" x2="23.4385" y1="50.9739" y2="50.9739" fill="none" stroke="#00FF00" stroke-linecap="round" stroke-linejoin="round" stroke-width="2"/>
    <line x1="27.2119" x2="41.0292" y1="39.316" y2="39.316" fill="none" stroke="#00FF00" stroke-linecap="round" stroke-linejoin="round" stroke-width="2"/>
  </g>
</svg>
</svg>
