<svg id="hexo" viewBox="0 0 128 128" xmlns="http://www.w3.org/2000/svg">
  <g id="border">
    <path stroke="#00FF00" fill="none" stroke-width="1" d="m62.11167,10.03457c1.16887,-0.67782 2.60778,-0.67782 3.77665,0l43.64866,25.33943c1.16887,0.67782 1.88833,1.93093 1.88833,3.28847l0,50.67505c0,1.35754 -0.71945,2.61064 -1.88833,3.28847l-43.64866,25.33943c-1.16887,0.67782 -2.60778,0.67782 -3.77665,0l-43.64866,-25.33943c-1.16887,-0.67782 -1.88833,-1.93093 -1.88833,-3.28847l0,-50.67505c0,-1.35754 0.71945,-2.61064 1.88833,-3.28847l43.64866,-25.33943z" id="svg_1"/>
  </g>
  <svg id="emoji" x="28" y="28" viewBox="0 0 128 128" xmlns="http://www.w3.org/2000/svg">
  <g id="line">
    <ellipse cx="35.9765" cy="36.145" rx="23.0446" ry="16.612" transform="translate(-15.0211 36.0258) rotate(-45)" fill="none" stroke="#00FF00" stroke-miterlimit="10" stroke-width="2"/>
    <path fill="none" stroke="#00FF00" stroke-linecap="round" stroke-miterlimit="10" stroke-width="2" d="M50.2559,29.9382c-1.5521,1.5521-4.7673.8535-7.1813-1.56s-3.1127-5.6292-1.56-7.1814,4.7673-.8535,7.1813,1.56a8.2239,8.2239,0,0,1,2.2534,3.85"/>
  </g>
</svg>
</svg>
