<svg id="hexo" viewBox="0 0 128 128" xmlns="http://www.w3.org/2000/svg">
  <g id="border">
    <path stroke="#800080" fill="none" stroke-width="1" d="m62.11167,10.03457c1.16887,-0.67782 2.60778,-0.67782 3.77665,0l43.64866,25.33943c1.16887,0.67782 1.88833,1.93093 1.88833,3.28847l0,50.67505c0,1.35754 -0.71945,2.61064 -1.88833,3.28847l-43.64866,25.33943c-1.16887,0.67782 -2.60778,0.67782 -3.77665,0l-43.64866,-25.33943c-1.16887,-0.67782 -1.88833,-1.93093 -1.88833,-3.28847l0,-50.67505c0,-1.35754 0.71945,-2.61064 1.88833,-3.28847l43.64866,-25.33943z" id="svg_1"/>
  </g>
  <svg id="emoji" x="28" y="28" viewBox="0 0 128 128" xmlns="http://www.w3.org/2000/svg">
  <g id="line">
    <path fill="none" stroke="#800080" stroke-linecap="round" stroke-linejoin="round" stroke-miterlimit="10" stroke-width="2" d="M33.5,52.778"/>
    <path fill="none" stroke="#800080" stroke-linecap="round" stroke-linejoin="round" stroke-miterlimit="10" stroke-width="2" d="M33.5,31.778"/>
    <path fill="none" stroke="#800080" stroke-linecap="round" stroke-linejoin="round" stroke-miterlimit="10" stroke-width="2" d="M38.5,52.778"/>
    <path fill="none" stroke="#800080" stroke-linecap="round" stroke-linejoin="round" stroke-miterlimit="10" stroke-width="2" d="M38.5,31.778"/>
    <path fill="none" stroke="#800080" stroke-linecap="round" stroke-linejoin="round" stroke-miterlimit="10" stroke-width="2" d="M38.5001,40.7611v7.1492L40,47.9105h6v5h-6l-1.4999-0.0002v9.0445l-4.9974-0.0443v-8.9998L32,52.9105h-6v-5h6l1.5027,0.0003 v-6.8054v-0.3461C26.4134,39.565,21,33.3973,21,25.9684c0-8.2843,6.7157-15,15-15s15,6.7157,15,15 c0,7.3797-5.3292,13.5147-12.3491,14.7665c-0.0504,0.009-0.1009,0.0177-0.1515,0.0262"/>
    <path fill="none" stroke="#800080" stroke-linecap="round" stroke-linejoin="round" stroke-miterlimit="10" stroke-width="2" d="M33.5027,40.7593"/>
    <circle cx="36" cy="25.9684" r="10" fill="none" stroke="#800080" stroke-linecap="round" stroke-linejoin="round" stroke-miterlimit="10" stroke-width="2"/>
  </g>
</svg>
</svg>
