<svg id="hexo" viewBox="0 0 128 128" xmlns="http://www.w3.org/2000/svg">
  <g id="border">
    <path stroke="#800080" fill="none" stroke-width="1" d="m62.11167,10.03457c1.16887,-0.67782 2.60778,-0.67782 3.77665,0l43.64866,25.33943c1.16887,0.67782 1.88833,1.93093 1.88833,3.28847l0,50.67505c0,1.35754 -0.71945,2.61064 -1.88833,3.28847l-43.64866,25.33943c-1.16887,0.67782 -2.60778,0.67782 -3.77665,0l-43.64866,-25.33943c-1.16887,-0.67782 -1.88833,-1.93093 -1.88833,-3.28847l0,-50.67505c0,-1.35754 0.71945,-2.61064 1.88833,-3.28847l43.64866,-25.33943z" id="svg_1"/>
  </g>
  <svg id="emoji" x="28" y="28" viewBox="0 0 128 128" xmlns="http://www.w3.org/2000/svg">
  <g id="line">
    <path fill="none" stroke="#800080" stroke-linecap="round" stroke-linejoin="round" stroke-width="2" d="M39.4,52.1 c0.8,3.6,5.4,9.3,7.3,10.1H36H25.3c1.9-0.8,6.6-6.6,7.3-10.1"/>
    <path fill="none" stroke="#800080" stroke-linecap="round" stroke-linejoin="round" stroke-width="2" d="M12.3,42 c0,7,5.6,12.6,12.6,12.6c4.8,0,9-2.7,11.1-6.6c2.1,3.9,6.3,6.6,11.1,6.6c7,0,12.6-5.6,12.6-12.6c0-3-1-5.7-2.8-7.9l0,0L36,8.1 l-20.9,26l0,0C13.3,36.2,12.3,39,12.3,42z"/>
  </g>
</svg>
</svg>
