<svg id="hexo" viewBox="0 0 128 128" xmlns="http://www.w3.org/2000/svg">
  <g id="border">
    <path stroke="#964B00" fill="none" stroke-width="1" d="m62.11167,10.03457c1.16887,-0.67782 2.60778,-0.67782 3.77665,0l43.64866,25.33943c1.16887,0.67782 1.88833,1.93093 1.88833,3.28847l0,50.67505c0,1.35754 -0.71945,2.61064 -1.88833,3.28847l-43.64866,25.33943c-1.16887,0.67782 -2.60778,0.67782 -3.77665,0l-43.64866,-25.33943c-1.16887,-0.67782 -1.88833,-1.93093 -1.88833,-3.28847l0,-50.67505c0,-1.35754 0.71945,-2.61064 1.88833,-3.28847l43.64866,-25.33943z" id="svg_1"/>
  </g>
  <svg id="emoji" x="28" y="28" viewBox="0 0 128 128" xmlns="http://www.w3.org/2000/svg">
  <g id="line">
    <path fill="none" stroke="#964B00" stroke-linecap="round" stroke-linejoin="round" stroke-miterlimit="10" stroke-width="2" d="M45.1152,44"/>
    <path fill="none" stroke="#964B00" stroke-linecap="round" stroke-linejoin="round" stroke-miterlimit="10" stroke-width="2" d="M15.1152,37c0,0,3-4,2-5"/>
    <ellipse cx="12.0313" cy="48" rx="7.0312" ry="7" fill="none" stroke="#964B00" stroke-miterlimit="10" stroke-width="2"/>
    <path fill="none" stroke="#964B00" stroke-linecap="round" stroke-linejoin="round" stroke-miterlimit="10" stroke-width="2" d="M45.1152,44"/>
    <path fill="none" stroke="#964B00" stroke-linecap="round" stroke-linejoin="round" stroke-miterlimit="10" stroke-width="2" d="M15.1152,37c3.0498,1.8311,6.4639,3.9277,7,5c1,2,1,9,1,9h20c0,0-0.4863-6.0371-12.2812-10 c-1.9756-0.6631-11.4951-7.2236-6.7188-12"/>
    <path fill="none" stroke="#964B00" stroke-linecap="round" stroke-linejoin="round" stroke-miterlimit="10" stroke-width="2" d="M12.1152,35.1201c-1.1953-0.6806-2-1.1201-2-1.1201s3.7842-6.3921,9-9c4-2,11-3,11-3v3l-6,4l4,3c0,0,6.7149-3.6279,10-1 c1.875,1.5,4,5,4,5s8-2,11-5v-3l14-3l-1,3c0,0-22.4902,16.167-28.4902,16.167"/>
    <path fill="none" stroke="#964B00" stroke-linecap="round" stroke-linejoin="round" stroke-miterlimit="10" stroke-width="2" d="M15.1152,37c0,0,3-4,2-5"/>
    <line x1="18.1152" x2="12.0313" y1="40" y2="48" fill="none" stroke="#964B00" stroke-linecap="round" stroke-linejoin="round" stroke-miterlimit="10" stroke-width="2"/>
    <polyline fill="none" stroke="#964B00" stroke-linecap="round" stroke-linejoin="round" stroke-miterlimit="10" stroke-width="2" points="65.1152,30 67.1152,32 66.1152,33"/>
    <polyline fill="none" stroke="#964B00" stroke-linecap="round" stroke-linejoin="round" stroke-miterlimit="10" stroke-width="2" points="59,39 48.1152,45 46,45"/>
    <path fill="none" stroke="#964B00" stroke-linecap="round" stroke-linejoin="round" stroke-miterlimit="10" stroke-width="2" d="M53.1152,28c-5.2802,2.8496-10.2822,4-14,4"/>
    <path fill="none" stroke="#964B00" stroke-linecap="round" stroke-miterlimit="10" stroke-width="2" d="M46.2666,49.916 C47.1045,52.8506,49.8164,55,53.0313,55c3.8828,0,7.0312-3.1338,7.0312-7c0-1.6602-0.5801-3.1846-1.5508-4.3848"/>
  </g>
</svg>
</svg>
