<svg id="hexo" viewBox="0 0 128 128" xmlns="http://www.w3.org/2000/svg">
  <g id="border">
    <path stroke="#FFFF00" fill="none" stroke-width="1" d="m62.11167,10.03457c1.16887,-0.67782 2.60778,-0.67782 3.77665,0l43.64866,25.33943c1.16887,0.67782 1.88833,1.93093 1.88833,3.28847l0,50.67505c0,1.35754 -0.71945,2.61064 -1.88833,3.28847l-43.64866,25.33943c-1.16887,0.67782 -2.60778,0.67782 -3.77665,0l-43.64866,-25.33943c-1.16887,-0.67782 -1.88833,-1.93093 -1.88833,-3.28847l0,-50.67505c0,-1.35754 0.71945,-2.61064 1.88833,-3.28847l43.64866,-25.33943z" id="svg_1"/>
  </g>
  <svg id="emoji" x="28" y="28" viewBox="0 0 128 128" xmlns="http://www.w3.org/2000/svg">
  <g id="line">
    <polyline fill="none" stroke="#FFFF00" stroke-linecap="round" stroke-linejoin="round" stroke-miterlimit="10" stroke-width="2" points="30.735,34.6557 14.3026,50.6814 14.3026,57.9214 21.868,57.9214 21.868,53.2845 26.9929,53.2845 26.9929,47.4274 32.0913,47.4274 34.4957,45.023 34.4957,40.6647 36.5107,40.6647"/>
    <circle cx="48.5201" cy="23.9982" r="3.9521" fill="none" stroke="#FFFF00" stroke-linecap="round" stroke-linejoin="round" stroke-miterlimit="10" stroke-width="2"/>
    <path fill="none" stroke="#FFFF00" stroke-linecap="round" stroke-linejoin="round" stroke-miterlimit="10" stroke-width="2" d="M34.2256,31.1781c-1.4298-4.2383-0.3466-9.2209,3.1804-12.6947c4.8446-4.7715,12.4654-4.8894,17.0216-0.2634 s4.3223,12.2441-0.5223,17.0156c-3.9169,3.8577-9.6484,4.6736-14.1079,2.3998"/>
  </g>
</svg>
</svg>
