<svg id="hexo" viewBox="0 0 128 128" xmlns="http://www.w3.org/2000/svg">
  <g id="border">
    <path stroke="#FFFF00" fill="none" stroke-width="1" d="m62.11167,10.03457c1.16887,-0.67782 2.60778,-0.67782 3.77665,0l43.64866,25.33943c1.16887,0.67782 1.88833,1.93093 1.88833,3.28847l0,50.67505c0,1.35754 -0.71945,2.61064 -1.88833,3.28847l-43.64866,25.33943c-1.16887,0.67782 -2.60778,0.67782 -3.77665,0l-43.64866,-25.33943c-1.16887,-0.67782 -1.88833,-1.93093 -1.88833,-3.28847l0,-50.67505c0,-1.35754 0.71945,-2.61064 1.88833,-3.28847l43.64866,-25.33943z" id="svg_1"/>
  </g>
  <svg id="emoji" x="28" y="28" viewBox="0 0 128 128" xmlns="http://www.w3.org/2000/svg">  <g id="line">
    <polyline fill="none" stroke="#FFFF00" stroke-linecap="round" stroke-linejoin="round" stroke-miterlimit="10" stroke-width="2" points="60,55 53.4,48.1 50,39"/>
    <polyline fill="none" stroke="#FFFF00" stroke-linecap="round" stroke-linejoin="round" stroke-miterlimit="10" stroke-width="2" points="19.4,33.1 18,37 16,49 12,55"/>
    <polyline fill="none" stroke="#FFFF00" stroke-linecap="round" stroke-linejoin="round" stroke-miterlimit="10" stroke-width="2" points="40,32 50,39 49,45 50,50 48,52 45,55"/>
    <line x1="48.7" x2="51" y1="30.3" y2="35" fill="none" stroke="#FFFF00" stroke-linecap="round" stroke-linejoin="round" stroke-miterlimit="10" stroke-width="2"/>
    <line x1="41.2" x2="42.4" y1="29" y2="27.5" fill="none" stroke="#FFFF00" stroke-linecap="round" stroke-linejoin="round" stroke-miterlimit="10" stroke-width="2"/>
    <path fill="none" stroke="#FFFF00" stroke-linecap="round" stroke-linejoin="round" stroke-miterlimit="10" stroke-width="2" d="M29,31c0,0-0.8,0.7-1.3,0.9C26,33,25.8,34.8,25,35c-1.3,0.4-0.9-2.7-3-3c-2-0.3-2.1,1.5-3,1c-1.2-0.7-0.2-4.4,0-5 c0.3-1.1,1.2-2.7,3-6c1.6-2.8,1.7-3.1,2-4c0.4-1.6,0.3-1.6,1-2c0.9-0.5,2.3,0.3,3,1c1,1,0.4,0.7,2,2c1.3,1,1.5,0.8,3,2 c0.3,0.2,1.1,0.9,2,2c0.6,0.7,1.4,1.6,2,3c0.7,1.5,0.4,1.7,1,3c0.9,1.9,2.2,2.6,2,3c-0.3,0.5-2.7-1-4,0c-0.4,0.3-0.3,0.6-1,2 c-0.8,1.7-1.2,3.6-2,4c-1.2,0.6-3-0.9-4-2C27.4,34.2,29,31,29,31z"/>
    <path fill="none" stroke="#FFFF00" stroke-linecap="round" stroke-linejoin="round" stroke-miterlimit="10" stroke-width="2" d="M44,23c0.8-0.8,1.9,1.3,3,3c0.9,1.4,2.4,3.2,2,4c-0.5,1-3,0.4-4,0c-0.3-0.2-0.4-0.3-1-1c-1.3-1.5-1.7-1.4-2-2 C41.4,25.7,43,24,44,23z"/>
  </g>
</svg>
</svg>
