<svg id="hexo" viewBox="0 0 128 128" xmlns="http://www.w3.org/2000/svg">
  <g id="border">
    <path stroke="#FFFF00" fill="none" stroke-width="1" d="m62.11167,10.03457c1.16887,-0.67782 2.60778,-0.67782 3.77665,0l43.64866,25.33943c1.16887,0.67782 1.88833,1.93093 1.88833,3.28847l0,50.67505c0,1.35754 -0.71945,2.61064 -1.88833,3.28847l-43.64866,25.33943c-1.16887,0.67782 -2.60778,0.67782 -3.77665,0l-43.64866,-25.33943c-1.16887,-0.67782 -1.88833,-1.93093 -1.88833,-3.28847l0,-50.67505c0,-1.35754 0.71945,-2.61064 1.88833,-3.28847l43.64866,-25.33943z" id="svg_1"/>
  </g>
  <svg id="emoji" x="28" y="28" viewBox="0 0 128 128" xmlns="http://www.w3.org/2000/svg">
  <g id="line">
    <path fill="none" stroke="#FFFF00" stroke-linecap="round" stroke-linejoin="round" stroke-miterlimit="10" stroke-width="2" d="M29.4871,12.875c1.2004,14.6562-2.0933,25.3484-3.1714,29.0282"/>
    <path fill="none" stroke="#FFFF00" stroke-linecap="round" stroke-linejoin="round" stroke-miterlimit="10" stroke-width="2" d="M42.8781,12.875c-1.2004,14.6562,2.0933,25.3484,3.1714,29.0282"/>
    <path fill="none" stroke="#FFFF00" stroke-linecap="round" stroke-linejoin="round" stroke-miterlimit="10" stroke-width="2" d="M50.25,37.7083c7.5833,4.6667,2.8334,11.7517-1.6875,13.0208C44.6425,51.8296,46,60.0682,36,60.0417 c-10,0.0265-8.6425-8.212-12.5625-9.3125C18.9166,49.46,14.1667,42.375,21.75,37.7083"/>
  </g>
</svg>
</svg>
