<svg id="hexo" viewBox="0 0 128 128" xmlns="http://www.w3.org/2000/svg">
  <g id="border">
    <path stroke="#0000FF" fill="none" stroke-width="1" d="m62.11167,10.03457c1.16887,-0.67782 2.60778,-0.67782 3.77665,0l43.64866,25.33943c1.16887,0.67782 1.88833,1.93093 1.88833,3.28847l0,50.67505c0,1.35754 -0.71945,2.61064 -1.88833,3.28847l-43.64866,25.33943c-1.16887,0.67782 -2.60778,0.67782 -3.77665,0l-43.64866,-25.33943c-1.16887,-0.67782 -1.88833,-1.93093 -1.88833,-3.28847l0,-50.67505c0,-1.35754 0.71945,-2.61064 1.88833,-3.28847l43.64866,-25.33943z" id="svg_1"/>
  </g>
  <svg id="emoji" x="28" y="28" viewBox="0 0 128 128" xmlns="http://www.w3.org/2000/svg">  <g id="line">
    <rect x="12" y="12" width="48" height="48" fill="none" stroke="#0000FF" stroke-linecap="round" stroke-linejoin="round" stroke-width="2"/>
    <path fill="none" stroke="#0000FF" stroke-linecap="round" stroke-miterlimit="10" stroke-width="3" d="m52.05 41.23s-0.0772-3.854-3.211-3.802c0 0-3.21-0.0224-3.21 3.622s-3.211 3.622-3.211 3.622c-3.133 0.0508-3.21-3.763-3.21-3.763 1e-4 -3.683-3.21-3.66-3.21-3.66-3.134-0.0517-3.211 3.75-3.211 3.75-1e-4 3.669-3.211 3.647-3.211 3.647-3.134 0.0508-3.211-3.776-3.211-3.776 0-3.695-3.209-3.673-3.209-3.673-3.135-0.0508-3.211 3.802-3.211 3.802"/>
    <path fill="none" stroke="#0000FF" stroke-linecap="round" stroke-miterlimit="10" stroke-width="3" d="m52.05 31.36s-0.0772-3.854-3.211-3.802c0 0-3.21-0.0224-3.21 3.622s-3.211 3.622-3.211 3.622c-3.133 0.0508-3.21-3.763-3.21-3.763 1e-4 -3.683-3.21-3.66-3.21-3.66-3.134-0.0517-3.211 3.75-3.211 3.75-1e-4 3.669-3.211 3.647-3.211 3.647-3.134 0.0508-3.211-3.776-3.211-3.776 0-3.695-3.209-3.673-3.209-3.673-3.135-0.0508-3.211 3.802-3.211 3.802"/>
  </g>
</svg>
</svg>
