<svg id="hexo" viewBox="0 0 128 128" xmlns="http://www.w3.org/2000/svg">
  <g id="border">
    <path stroke="#0000FF" fill="none" stroke-width="1" d="m62.11167,10.03457c1.16887,-0.67782 2.60778,-0.67782 3.77665,0l43.64866,25.33943c1.16887,0.67782 1.88833,1.93093 1.88833,3.28847l0,50.67505c0,1.35754 -0.71945,2.61064 -1.88833,3.28847l-43.64866,25.33943c-1.16887,0.67782 -2.60778,0.67782 -3.77665,0l-43.64866,-25.33943c-1.16887,-0.67782 -1.88833,-1.93093 -1.88833,-3.28847l0,-50.67505c0,-1.35754 0.71945,-2.61064 1.88833,-3.28847l43.64866,-25.33943z" id="svg_1"/>
  </g>
  <svg id="emoji" x="28" y="28" viewBox="0 0 128 128" xmlns="http://www.w3.org/2000/svg">
  <g id="line">
    <line x1="15.2475" x2="20.3487" y1="50.252" y2="55.1946" fill="none" stroke="#0000FF" stroke-linecap="round" stroke-linejoin="round" stroke-width="2"/>
    <path fill="none" stroke="#0000FF" stroke-linecap="round" stroke-linejoin="round" stroke-width="2" d="M54.6873,19.6056a5.0443,5.0443,0,0,0,2.2362-.58c.6314-.3969,3.5323-3.3609,5.1821-5.068a1.6979,1.6979,0,0,0-.0232-2.3817l-1.529-1.5289a1.6943,1.6943,0,0,0-2.379-.0257c-1.8269,1.7649-5.1332,4.9724-5.4614,5.3846a3.3166,3.3166,0,0,0-.4651,1.4471,1.7237,1.7237,0,0,1-.4994,1.0055L29.5532,39.4956"/>
    <circle cx="21.3487" cy="49.3419" r="12" fill="none" stroke="#0000FF" stroke-linecap="round" stroke-linejoin="round" stroke-width="2"/>
  </g>
</svg>
</svg>
