<svg id="hexo" viewBox="0 0 128 128" xmlns="http://www.w3.org/2000/svg">
  <g id="border">
    <path stroke="#0000FF" fill="none" stroke-width="1" d="m62.11167,10.03457c1.16887,-0.67782 2.60778,-0.67782 3.77665,0l43.64866,25.33943c1.16887,0.67782 1.88833,1.93093 1.88833,3.28847l0,50.67505c0,1.35754 -0.71945,2.61064 -1.88833,3.28847l-43.64866,25.33943c-1.16887,0.67782 -2.60778,0.67782 -3.77665,0l-43.64866,-25.33943c-1.16887,-0.67782 -1.88833,-1.93093 -1.88833,-3.28847l0,-50.67505c0,-1.35754 0.71945,-2.61064 1.88833,-3.28847l43.64866,-25.33943z" id="svg_1"/>
  </g>
  <svg id="emoji" x="28" y="28" viewBox="0 0 128 128" xmlns="http://www.w3.org/2000/svg">
  <g id="line">
    <path fill="none" stroke="#0000FF" stroke-linecap="round" stroke-linejoin="round" stroke-width="2" d="M31.1391,25.3086a6.83,6.83,0,0,0-3.1626-.4173,6.8188,6.8188,0,0,0-1.3688-2.88l-.0962-.0884-.0962.0884a7.1959,7.1959,0,0,0-1.3688,2.88,6.83,6.83,0,0,0-3.1626.4173l-.1132.0651.0552.1183a7.1677,7.1677,0,0,0,2.3152,2.1859,6.8412,6.8412,0,0,0-.6005,3.1348l.0268.1278.13-.0158A7.2429,7.2429,0,0,0,26.5115,29.4a7.1092,7.1092,0,0,0,2.7793,1.5246l.13.0158.0269-.1278a6.8058,6.8058,0,0,0-.5654-3.1348,7.1688,7.1688,0,0,0,2.3152-2.1859l.0552-.1183Z"/>
    <path fill="none" stroke="#0000FF" stroke-linecap="round" stroke-linejoin="round" stroke-width="2" d="M26.5114,45.3169A15.0024,15.0024,0,1,1,45.5271,27.2485"/>
    <path fill="none" stroke="#0000FF" stroke-linecap="round" stroke-linejoin="round" stroke-width="2" d="M45.8609,40.3086a6.83,6.83,0,0,1,3.1626-.4173,6.8188,6.8188,0,0,1,1.3688-2.88l.0962-.0884.0962.0884a7.1959,7.1959,0,0,1,1.3688,2.88,6.83,6.83,0,0,1,3.1626.4173l.1132.0651-.0552.1183a7.1677,7.1677,0,0,1-2.3152,2.1859,6.8412,6.8412,0,0,1,.6005,3.1348l-.0268.1278-.13-.0158A7.2429,7.2429,0,0,1,50.4885,44.4a7.1092,7.1092,0,0,1-2.7793,1.5246l-.13.0158-.0269-.1278a6.8058,6.8058,0,0,1,.5654-3.1348,7.1688,7.1688,0,0,1-2.3152-2.1859l-.0552-.1183Z"/>
    <circle cx="46" cy="46" r="15" fill="none" stroke="#0000FF" stroke-linecap="round" stroke-linejoin="round" stroke-width="2"/>
  </g>
</svg>
</svg>
