<svg id="hexo" viewBox="0 0 128 128" xmlns="http://www.w3.org/2000/svg">
  <g id="border">
    <path stroke="#0000FF" fill="none" stroke-width="1" d="m62.11167,10.03457c1.16887,-0.67782 2.60778,-0.67782 3.77665,0l43.64866,25.33943c1.16887,0.67782 1.88833,1.93093 1.88833,3.28847l0,50.67505c0,1.35754 -0.71945,2.61064 -1.88833,3.28847l-43.64866,25.33943c-1.16887,0.67782 -2.60778,0.67782 -3.77665,0l-43.64866,-25.33943c-1.16887,-0.67782 -1.88833,-1.93093 -1.88833,-3.28847l0,-50.67505c0,-1.35754 0.71945,-2.61064 1.88833,-3.28847l43.64866,-25.33943z" id="svg_1"/>
  </g>
  <svg id="emoji" x="28" y="28" viewBox="0 0 128 128" xmlns="http://www.w3.org/2000/svg">
  <g id="line">
    <line x1="17" x2="36" y1="36" y2="63" fill="none" stroke="#0000FF" stroke-linecap="round" stroke-linejoin="round" stroke-width="2"/>
    <line x1="36" x2="55" y1="63" y2="36" fill="none" stroke="#0000FF" stroke-linecap="round" stroke-linejoin="round" stroke-width="2"/>
    <line x1="17" x2="36" y1="36" y2="9" fill="none" stroke="#0000FF" stroke-linecap="round" stroke-linejoin="round" stroke-width="2"/>
    <line x1="36" x2="55" y1="9" y2="36" fill="none" stroke="#0000FF" stroke-linecap="round" stroke-linejoin="round" stroke-width="2"/>
  </g>
</svg>
</svg>
