<svg id="hexo" viewBox="0 0 128 128" xmlns="http://www.w3.org/2000/svg">
  <g id="border">
    <path stroke="#0000FF" fill="none" stroke-width="1" d="m62.11167,10.03457c1.16887,-0.67782 2.60778,-0.67782 3.77665,0l43.64866,25.33943c1.16887,0.67782 1.88833,1.93093 1.88833,3.28847l0,50.67505c0,1.35754 -0.71945,2.61064 -1.88833,3.28847l-43.64866,25.33943c-1.16887,0.67782 -2.60778,0.67782 -3.77665,0l-43.64866,-25.33943c-1.16887,-0.67782 -1.88833,-1.93093 -1.88833,-3.28847l0,-50.67505c0,-1.35754 0.71945,-2.61064 1.88833,-3.28847l43.64866,-25.33943z" id="svg_1"/>
  </g>
  <svg id="emoji" x="28" y="28" viewBox="0 0 128 128" xmlns="http://www.w3.org/2000/svg">
  <g id="line">
    <polygon fill="none" stroke="#0000FF" stroke-linecap="round" stroke-linejoin="round" stroke-miterlimit="10" stroke-width="2" points="53,32.25 54.875,32.25 54.875,59.125 16.875,59.125 16.875,32.25 18.75,32.25"/>
    <path fill="none" stroke="#0000FF" stroke-linecap="round" stroke-linejoin="round" stroke-miterlimit="10" stroke-width="2" d="M21.3751,28.9146c0-8.3786,6.4151-16.2744,14.3184-16.523c7.9697-0.2507,15.4098,7.2847,14.7416,16.523"/>
    <path fill="none" stroke="#0000FF" stroke-linecap="round" stroke-linejoin="round" stroke-miterlimit="10" stroke-width="2" d="M25.5478,28.9146c0-6.3352,4.5755-12.3054,10.2123-12.4934c5.6843-0.1896,10.9908,5.5081,10.5142,12.4934"/>
    <path fill="none" stroke="#0000FF" stroke-linecap="round" stroke-linejoin="round" stroke-miterlimit="10" stroke-width="2" d="M46.3042,29.9146"/>
  </g>
</svg>
</svg>
