<svg id="hexo" viewBox="0 0 128 128" xmlns="http://www.w3.org/2000/svg">
  <g id="border">
    <path stroke="#0000FF" fill="none" stroke-width="1" d="m62.11167,10.03457c1.16887,-0.67782 2.60778,-0.67782 3.77665,0l43.64866,25.33943c1.16887,0.67782 1.88833,1.93093 1.88833,3.28847l0,50.67505c0,1.35754 -0.71945,2.61064 -1.88833,3.28847l-43.64866,25.33943c-1.16887,0.67782 -2.60778,0.67782 -3.77665,0l-43.64866,-25.33943c-1.16887,-0.67782 -1.88833,-1.93093 -1.88833,-3.28847l0,-50.67505c0,-1.35754 0.71945,-2.61064 1.88833,-3.28847l43.64866,-25.33943z" id="svg_1"/>
  </g>
  <svg id="emoji" x="28" y="28" viewBox="0 0 128 128" xmlns="http://www.w3.org/2000/svg">
  <g id="line">
    <path id="_xD83E__xDD44_" fill="none" stroke="#0000FF" stroke-linecap="round" stroke-linejoin="round" stroke-miterlimit="10" stroke-width="2" d="M43.4573,21.3227c0-5.0582-2.6112-9.1586-5.8323-9.1586s-5.8323,4.1004-5.8323,9.1586c0,4.6982,1.3551,8.5665,4.257,9.0938l0,0	l-0.8108,28.4123c0,1.1046,0.8954,2,2,2s2-0.8954,2-2l-0.0285-28.4181l0,0C42.1071,29.876,43.4573,26.0153,43.4573,21.3227z"/>
  </g>
</svg>
</svg>
