<svg id="hexo" viewBox="0 0 128 128" xmlns="http://www.w3.org/2000/svg">
  <g id="border">
    <path stroke="#808080" fill="none" stroke-width="1" d="m62.11167,10.03457c1.16887,-0.67782 2.60778,-0.67782 3.77665,0l43.64866,25.33943c1.16887,0.67782 1.88833,1.93093 1.88833,3.28847l0,50.67505c0,1.35754 -0.71945,2.61064 -1.88833,3.28847l-43.64866,25.33943c-1.16887,0.67782 -2.60778,0.67782 -3.77665,0l-43.64866,-25.33943c-1.16887,-0.67782 -1.88833,-1.93093 -1.88833,-3.28847l0,-50.67505c0,-1.35754 0.71945,-2.61064 1.88833,-3.28847l43.64866,-25.33943z" id="svg_1"/>
  </g>
  <svg id="emoji" x="28" y="28" viewBox="0 0 128 128" xmlns="http://www.w3.org/2000/svg">
  <g id="line">
    <path fill="none" stroke="#808080" stroke-linecap="round" stroke-miterlimit="10" stroke-width="2" d="M9.71,20.2278s22.1194,3.16,26.3,15.8047c5.0627,12.6631,26.28,15.7417,26.28,15.7417"/>
    <path fill="none" stroke="#808080" stroke-linecap="round" stroke-miterlimit="10" stroke-width="2" d="M38.4036,32.0087C45.5936,21.4437,62.29,20.2258,62.29,20.2258"/>
    <path fill="#808080" d="M13.0119,26.5365a1.5,1.5,0,0,1,1.5,1.5v15.929a1.5,1.5,0,0,1-1.5,1.5h-.1548a1.5,1.5,0,0,1-1.5-1.5V28.0365a1.5,1.5,0,0,1,1.5-1.5h.1548m0-2h-.1548a3.504,3.504,0,0,0-3.5,3.5v15.929a3.504,3.504,0,0,0,3.5,3.5h.1548a3.504,3.504,0,0,0,3.5-3.5V28.0365a3.504,3.504,0,0,0-3.5-3.5Z"/>
    <path fill="#808080" d="M23.528,29.1655a1.5,1.5,0,0,1,1.5,1.5v10.671a1.5,1.5,0,0,1-1.5,1.5h-.1548a1.5,1.5,0,0,1-1.5-1.5V30.6655a1.5,1.5,0,0,1,1.5-1.5h.1548m0-2h-.1548a3.504,3.504,0,0,0-3.5,3.5v10.671a3.504,3.504,0,0,0,3.5,3.5h.1548a3.504,3.504,0,0,0,3.5-3.5V30.6655a3.504,3.504,0,0,0-3.5-3.5Z"/>
    <path fill="#808080" d="M59.1463,26.5375a1.5,1.5,0,0,1,1.5,1.5v15.929a1.5,1.5,0,0,1-1.5,1.5h-.1548a1.5,1.5,0,0,1-1.5-1.5V28.0375a1.5,1.5,0,0,1,1.5-1.5h.1548m0-2h-.1548a3.504,3.504,0,0,0-3.5,3.5v15.929a3.504,3.504,0,0,0,3.5,3.5h.1548a3.504,3.504,0,0,0,3.5-3.5V28.0375a3.504,3.504,0,0,0-3.5-3.5Z"/>
    <path fill="#808080" d="M48.63,29.1665a1.5,1.5,0,0,1,1.5,1.5v10.671a1.5,1.5,0,0,1-1.5,1.5h-.1548a1.5,1.5,0,0,1-1.5-1.5V30.6665a1.5,1.5,0,0,1,1.5-1.5H48.63m0-2h-.1548a3.504,3.504,0,0,0-3.5,3.5v10.671a3.504,3.504,0,0,0,3.5,3.5H48.63a3.504,3.504,0,0,0,3.5-3.5V30.6665a3.504,3.504,0,0,0-3.5-3.5Z"/>
    <path fill="none" stroke="#808080" stroke-linecap="round" stroke-miterlimit="10" stroke-width="2" d="M33.5964,39.9913C26.4064,50.5563,9.71,51.7742,9.71,51.7742"/>
  </g>
</svg>
</svg>
