<svg id="hexo" viewBox="0 0 128 128" xmlns="http://www.w3.org/2000/svg">
  <g id="border">
    <path stroke="#808080" fill="none" stroke-width="1" d="m62.11167,10.03457c1.16887,-0.67782 2.60778,-0.67782 3.77665,0l43.64866,25.33943c1.16887,0.67782 1.88833,1.93093 1.88833,3.28847l0,50.67505c0,1.35754 -0.71945,2.61064 -1.88833,3.28847l-43.64866,25.33943c-1.16887,0.67782 -2.60778,0.67782 -3.77665,0l-43.64866,-25.33943c-1.16887,-0.67782 -1.88833,-1.93093 -1.88833,-3.28847l0,-50.67505c0,-1.35754 0.71945,-2.61064 1.88833,-3.28847l43.64866,-25.33943z" id="svg_1"/>
  </g>
  <svg id="emoji" x="28" y="28" viewBox="0 0 128 128" xmlns="http://www.w3.org/2000/svg">
  <g id="line">
    <line x1="25" x2="12" y1="48" y2="61" fill="none" stroke="#808080" stroke-linecap="round" stroke-miterlimit="10" stroke-width="2"/>
    <line x1="60" x2="47" y1="61" y2="48" fill="none" stroke="#808080" stroke-linecap="round" stroke-miterlimit="10" stroke-width="2"/>
    <line x1="13" x2="59.3326" y1="57.9356" y2="58.2" fill="none" stroke="#808080" stroke-linecap="round" stroke-miterlimit="10" stroke-width="2"/>
    <line x1="17" x2="55.3326" y1="53.9356" y2="54.2" fill="none" stroke="#808080" stroke-linecap="round" stroke-miterlimit="10" stroke-width="2"/>
    <line x1="21" x2="51.3326" y1="49.9356" y2="50.2" fill="none" stroke="#808080" stroke-linecap="round" stroke-miterlimit="10" stroke-width="2"/>
    <path fill="none" stroke="#808080" stroke-linecap="round" stroke-linejoin="round" stroke-width="2" d="M47,19v8.8H26"/>
    <polyline fill="none" stroke="#808080" stroke-linecap="round" stroke-linejoin="round" stroke-width="2" points="26 40 30 40 30 36"/>
    <polyline fill="none" stroke="#808080" stroke-linecap="round" stroke-linejoin="round" stroke-width="2" points="43 40 47 40 47 36"/>
    <rect x="21.6" y="11" rx="3.0558" ry="3.0558" width="28.8" height="33.6" fill="none" stroke="#808080" stroke-linecap="round" stroke-linejoin="round" stroke-width="2"/>
  </g>
</svg>
</svg>
