<svg id="hexo" viewBox="0 0 128 128" xmlns="http://www.w3.org/2000/svg">
  <g id="border">
    <path stroke="#808080" fill="none" stroke-width="1" d="m62.11167,10.03457c1.16887,-0.67782 2.60778,-0.67782 3.77665,0l43.64866,25.33943c1.16887,0.67782 1.88833,1.93093 1.88833,3.28847l0,50.67505c0,1.35754 -0.71945,2.61064 -1.88833,3.28847l-43.64866,25.33943c-1.16887,0.67782 -2.60778,0.67782 -3.77665,0l-43.64866,-25.33943c-1.16887,-0.67782 -1.88833,-1.93093 -1.88833,-3.28847l0,-50.67505c0,-1.35754 0.71945,-2.61064 1.88833,-3.28847l43.64866,-25.33943z" id="svg_1"/>
  </g>
  <svg id="emoji" x="28" y="28" viewBox="0 0 128 128" xmlns="http://www.w3.org/2000/svg">
  <g id="line">
    <path fill="none" stroke="#808080" stroke-miterlimit="10" stroke-width="2" d="M44.1255,42.1994"/>
    <polyline fill="none" stroke="#808080" stroke-linecap="round" stroke-linejoin="round" stroke-width="2" points="35.7895,63.9434 35.7895,52.7764 28.1585,45.2604"/>
    <line x1="35.7895" x2="40.1575" y1="52.7764" y2="48.2304" fill="none" stroke="#808080" stroke-linecap="round" stroke-linejoin="round" stroke-width="2"/>
    <path fill="none" stroke="#808080" stroke-miterlimit="10" stroke-width="2" d="M45.3155,41.4304"/>
    <path fill="none" stroke="#808080" stroke-linecap="round" stroke-miterlimit="10" stroke-width="2" d="M63.3745,25.7734 c0-5-5.289-9.061-11.813-9.061c-0.5451,0.0044-1.0895,0.0378-1.631,0.1c-2.763-5.216-8.762-8.839-15.738-8.839 c-9.593,0-17.369,6.836-17.369,15.268c0.0017,0.5574,0.0378,1.1141,0.108,1.667c-4.288,1.359-7.306,4.595-7.306,8.374 c0,5,5.289,9.061,11.813,9.061c2.4798,0.021,4.922-0.6072,7.084-1.822c2.791,2.229,7.257,3.681,12.307,3.681 c8.461,0,15.32-4.057,15.32-9.061c-0.0014-0.3308-0.0329-0.6609-0.094-0.986C60.3485,32.7954,63.3745,29.5574,63.3745,25.7734z"/>
  </g>
</svg>
</svg>
