<svg id="hexo" viewBox="0 0 128 128" xmlns="http://www.w3.org/2000/svg">
  <g id="border">
    <path stroke="#FFC0CB" fill="none" stroke-width="1" d="m62.11167,10.03457c1.16887,-0.67782 2.60778,-0.67782 3.77665,0l43.64866,25.33943c1.16887,0.67782 1.88833,1.93093 1.88833,3.28847l0,50.67505c0,1.35754 -0.71945,2.61064 -1.88833,3.28847l-43.64866,25.33943c-1.16887,0.67782 -2.60778,0.67782 -3.77665,0l-43.64866,-25.33943c-1.16887,-0.67782 -1.88833,-1.93093 -1.88833,-3.28847l0,-50.67505c0,-1.35754 0.71945,-2.61064 1.88833,-3.28847l43.64866,-25.33943z" id="svg_1"/>
  </g>
  <svg id="emoji" x="28" y="28" viewBox="0 0 128 128" xmlns="http://www.w3.org/2000/svg">  <g id="line">
    <polyline fill="none" stroke="#FFC0CB" stroke-linecap="round" stroke-linejoin="round" stroke-miterlimit="10" stroke-width="2.069" points="35.6352,54.0172 57.4698,48.7313 57.4698,21.7647 35.6167,26.5155 13.7667,21.7647 13.7667,48.7313 35.6013,54.0172 35.6013,30.3713"/>
    <polyline fill="none" stroke="#FFC0CB" stroke-linecap="round" stroke-linejoin="round" stroke-miterlimit="10" stroke-width="2.069" points="13.7667,21.7647 35.8082,16.4545 57.4698,21.7647"/>
    <circle fill="#FFC0CB" cx="21.2735" cy="32.9339" r="3"/>
    <circle fill="#FFC0CB" cx="27.2446" cy="44.3761" r="3"/>
    <circle fill="#FFC0CB" cx="41.767" cy="45.2211" r="3"/>
    <circle fill="#FFC0CB" cx="46.8274" cy="38.0668" r="3"/>
    <circle fill="#FFC0CB" cx="51.8878" cy="30.9124" r="3"/>
    <ellipse fill="#FFC0CB" cx="35.8312" cy="21.1219" rx="4" ry="1.6191"/>
  </g>
</svg>
</svg>
