<svg id="hexo" viewBox="0 0 128 128" xmlns="http://www.w3.org/2000/svg" style="background-color:#000000">
  <g id="border">
    <path stroke="#FFFFFF" fill="none" stroke-width="1" d="m62.11167,10.03457c1.16887,-0.67782 2.60778,-0.67782 3.77665,0l43.64866,25.33943c1.16887,0.67782 1.88833,1.93093 1.88833,3.28847l0,50.67505c0,1.35754 -0.71945,2.61064 -1.88833,3.28847l-43.64866,25.33943c-1.16887,0.67782 -2.60778,0.67782 -3.77665,0l-43.64866,-25.33943c-1.16887,-0.67782 -1.88833,-1.93093 -1.88833,-3.28847l0,-50.67505c0,-1.35754 0.71945,-2.61064 1.88833,-3.28847l43.64866,-25.33943z" id="svg_1"/>
  </g>
  <svg id="emoji" x="28" y="28" viewBox="0 0 128 128" xmlns="http://www.w3.org/2000/svg">
  <g id="line">
    <path fill="none" stroke="#FFFFFF" stroke-linecap="round" stroke-linejoin="round" stroke-miterlimit="10" stroke-width="2" d="M30.9079,23.735c-0.4263-1.4112-0.7692-3.6894-0.7692-5.9495c0-4.4164,5.4684-9.482,5.4684-9.482s4.4065,4.2924,5.1651,8.5166 c0.4329,2.4099-0.1251,5.209-0.769,6.9149"/>
    <polygon fill="none" stroke="#FFFFFF" stroke-linecap="round" stroke-linejoin="round" stroke-miterlimit="10" stroke-width="2" points="28.7763,63.6037 41.6698,63.6037 41.6698,32.5963 28.7763,32.5289"/>
    <line x1="35.3721" x2="35.3721" y1="23.7349" y2="27.7758" fill="none" stroke="#FFFFFF" stroke-linecap="round" stroke-linejoin="round" stroke-miterlimit="10" stroke-width="2"/>
  </g>
</svg>
</svg>
