<svg id="hexo" viewBox="0 0 128 128" xmlns="http://www.w3.org/2000/svg" style="background-color:#000000">
  <g id="border">
    <path stroke="#FFFFFF" fill="none" stroke-width="1" d="m62.11167,10.03457c1.16887,-0.67782 2.60778,-0.67782 3.77665,0l43.64866,25.33943c1.16887,0.67782 1.88833,1.93093 1.88833,3.28847l0,50.67505c0,1.35754 -0.71945,2.61064 -1.88833,3.28847l-43.64866,25.33943c-1.16887,0.67782 -2.60778,0.67782 -3.77665,0l-43.64866,-25.33943c-1.16887,-0.67782 -1.88833,-1.93093 -1.88833,-3.28847l0,-50.67505c0,-1.35754 0.71945,-2.61064 1.88833,-3.28847l43.64866,-25.33943z" id="svg_1"/>
  </g>
  <svg id="emoji" x="28" y="28" viewBox="0 0 128 128" xmlns="http://www.w3.org/2000/svg">
  <g id="line-supplement" fill="#FFFFFF">
    <polyline points="33.2 33.2 48 24 38.8 38.8"/>
  </g>
  <g id="line">
    <circle cx="36" cy="36" r="24" fill="none" stroke="#FFFFFF" stroke-linecap="round" stroke-linejoin="round" stroke-width="2"/>
    <polyline fill="none" stroke="#FFFFFF" stroke-linecap="round" stroke-linejoin="round" stroke-width="2" points="33.2 33.2 24 48 38.8 38.8"/>
    <polyline fill="none" stroke="#FFFFFF" stroke-linecap="round" stroke-linejoin="round" stroke-width="2" points="33.2 33.2 48 24 38.8 38.8"/>
    <line x1="36" x2="36" y1="21" y2="16" fill="none" stroke="#FFFFFF" stroke-linecap="round" stroke-linejoin="round" stroke-width="2"/>
    <line x1="36" x2="36" y1="56" y2="51" fill="none" stroke="#FFFFFF" stroke-linecap="round" stroke-linejoin="round" stroke-width="2"/>
    <line x1="51" x2="56" y1="36" y2="36" fill="none" stroke="#FFFFFF" stroke-linecap="round" stroke-linejoin="round" stroke-width="2"/>
    <line x1="16" x2="21" y1="36" y2="36" fill="none" stroke="#FFFFFF" stroke-linecap="round" stroke-linejoin="round" stroke-width="2"/>
  </g>
</svg>
</svg>
