<svg id="hexo" viewBox="0 0 128 128" xmlns="http://www.w3.org/2000/svg" style="background-color:#000000">
  <g id="border">
    <path stroke="#FFFFFF" fill="none" stroke-width="1" d="m62.11167,10.03457c1.16887,-0.67782 2.60778,-0.67782 3.77665,0l43.64866,25.33943c1.16887,0.67782 1.88833,1.93093 1.88833,3.28847l0,50.67505c0,1.35754 -0.71945,2.61064 -1.88833,3.28847l-43.64866,25.33943c-1.16887,0.67782 -2.60778,0.67782 -3.77665,0l-43.64866,-25.33943c-1.16887,-0.67782 -1.88833,-1.93093 -1.88833,-3.28847l0,-50.67505c0,-1.35754 0.71945,-2.61064 1.88833,-3.28847l43.64866,-25.33943z" id="svg_1"/>
  </g>
  <svg id="emoji" x="28" y="28" viewBox="0 0 128 128" xmlns="http://www.w3.org/2000/svg">
  <g id="line">
    <path fill="none" stroke="#FFFFFF" stroke-linecap="round" stroke-miterlimit="10" stroke-width="2" d="M16.0302,55.9368 c-1.5967-1.6729-1.9362-4.0928-1.0184-6.0812c-4.2565-8.3473-1.6753-20.2596,6.9544-28.8894s20.542-11.211,28.8894-6.9545 c2.026-0.9351,4.4999-0.5649,6.1752,1.1104c1.6753,1.6753,2.0455,4.1493,1.1104,6.1752 c4.2661,8.3571,1.6753,20.2596-6.9545,28.8894s-20.5323,11.2207-28.8894,6.9544c-2.026,0.9351-4.5,0.5649-6.1753-1.1103 C16.091,55.9998,16.0604,55.9684,16.0302,55.9368"/>
    <path fill="none" stroke="#FFFFFF" stroke-linecap="round" stroke-miterlimit="10" stroke-width="2" d="M16.0302,55.9368 c-1.5967-1.6729-1.9362-4.0928-1.0184-6.0812c-4.2565-8.3473-1.6753-20.2596,6.9544-28.8894s20.542-11.211,28.8894-6.9545 c2.026-0.9351,4.4999-0.5649,6.1752,1.1104c1.6753,1.6753,2.0455,4.1493,1.1104,6.1752 c4.2661,8.3571,1.6753,20.2596-6.9545,28.8894s-20.5323,11.2207-28.8894,6.9544c-2.026,0.9351-4.5,0.5649-6.1753-1.1103 C16.091,55.9998,16.0604,55.9684,16.0302,55.9368"/>
  </g>
</svg>
</svg>
