<svg id="hexo" viewBox="0 0 128 128" xmlns="http://www.w3.org/2000/svg" style="background-color:#000000">
  <g id="border">
    <path stroke="#FFFFFF" fill="none" stroke-width="1" d="m62.11167,10.03457c1.16887,-0.67782 2.60778,-0.67782 3.77665,0l43.64866,25.33943c1.16887,0.67782 1.88833,1.93093 1.88833,3.28847l0,50.67505c0,1.35754 -0.71945,2.61064 -1.88833,3.28847l-43.64866,25.33943c-1.16887,0.67782 -2.60778,0.67782 -3.77665,0l-43.64866,-25.33943c-1.16887,-0.67782 -1.88833,-1.93093 -1.88833,-3.28847l0,-50.67505c0,-1.35754 0.71945,-2.61064 1.88833,-3.28847l43.64866,-25.33943z" id="svg_1"/>
  </g>
  <svg id="emoji" x="28" y="28" viewBox="0 0 128 128" xmlns="http://www.w3.org/2000/svg">  <g id="line">
    <path fill="none" stroke="#FFFFFF" stroke-linecap="round" stroke-linejoin="round" stroke-width="2" d="M48.3723,36.082 l3.243,19.472c0.3715,2.2297-0.3566,4.5016-1.955,6.1l-3.578,3.578l-6.534-20.824"/>
    <path fill="none" stroke="#FFFFFF" stroke-linecap="round" stroke-linejoin="round" stroke-width="2" d="M27.2233,32.2 l-20.659-6.482l3.578-3.578c1.5985-1.5984,3.8703-2.3265,6.1001-1.955l19.472,3.243"/>
    <path fill="none" stroke="#FFFFFF" stroke-linejoin="round" stroke-width="2" d="M56.1423,18.469l-0.158-0.585 c-0.2797-1.0374-1.0847-1.8511-2.119-2.142l-0.579-0.159c-1.8103-0.6506-3.8324-0.2362-5.241,1.074l-28.853,28.808l-6.339-0.842 l-5.253,5.312l9.964,4.3l0,0l4.1171,10.206l5.371-5.428l-0.747-6.428l28.8-28.795C56.3978,22.3393,56.7954,20.2989,56.1423,18.469z"/>
  </g>
</svg>
</svg>
