<svg id="hexo" viewBox="0 0 128 128" xmlns="http://www.w3.org/2000/svg">
  <g id="border">
    <path stroke="#FFA500" fill="none" stroke-width="1" d="m62.11167,10.03457c1.16887,-0.67782 2.60778,-0.67782 3.77665,0l43.64866,25.33943c1.16887,0.67782 1.88833,1.93093 1.88833,3.28847l0,50.67505c0,1.35754 -0.71945,2.61064 -1.88833,3.28847l-43.64866,25.33943c-1.16887,0.67782 -2.60778,0.67782 -3.77665,0l-43.64866,-25.33943c-1.16887,-0.67782 -1.88833,-1.93093 -1.88833,-3.28847l0,-50.67505c0,-1.35754 0.71945,-2.61064 1.88833,-3.28847l43.64866,-25.33943z" id="svg_1"/>
  </g>
  <svg id="emoji" x="28" y="28" viewBox="0 0 128 128" xmlns="http://www.w3.org/2000/svg">
  <g id="line">
    <path fill="none" stroke="#FFA500" stroke-miterlimit="10" stroke-width="2" d="M52.75,44.6037 c0,9.0482-7.3378,16.3754-16.3754,16.3754c-9.0482,0-16.3754-7.3272-16.3754-16.3754c0-0.2534,0.0106-0.4962,0.0211-0.7496 c0.095-2.2911,0.6757-4.4661,1.6259-6.4193c0.6335-1.5731,1.3831-3.1674,2.1432-4.7722c2.0377-4.3182,4.1388-8.6892,4.1388-13.0391 c0-4.6667,3.7797-8.4464,8.4464-8.4464c4.656,0,8.4464,3.7797,8.4464,8.4464c0,4.3499,2.101,8.7209,4.1387,13.0391 c0.7601,1.6048,1.5098,3.1991,2.1433,4.7722c0.8552,2.1644,1.4992,4.3077,1.6259,6.4193 C52.7394,44.1075,52.75,44.3503,52.75,44.6037z"/>
    <circle cx="36.3746" cy="44.5271" r="8.4489" fill="none" stroke="#FFA500" stroke-linecap="round" stroke-linejoin="round" stroke-miterlimit="10" stroke-width="2"/>
  </g>
</svg>
</svg>
