<svg id="hexo" viewBox="0 0 128 128" xmlns="http://www.w3.org/2000/svg">
  <g id="border">
    <path stroke="#FFA500" fill="none" stroke-width="1" d="m62.11167,10.03457c1.16887,-0.67782 2.60778,-0.67782 3.77665,0l43.64866,25.33943c1.16887,0.67782 1.88833,1.93093 1.88833,3.28847l0,50.67505c0,1.35754 -0.71945,2.61064 -1.88833,3.28847l-43.64866,25.33943c-1.16887,0.67782 -2.60778,0.67782 -3.77665,0l-43.64866,-25.33943c-1.16887,-0.67782 -1.88833,-1.93093 -1.88833,-3.28847l0,-50.67505c0,-1.35754 0.71945,-2.61064 1.88833,-3.28847l43.64866,-25.33943z" id="svg_1"/>
  </g>
  <svg id="emoji" x="28" y="28" viewBox="0 0 128 128" xmlns="http://www.w3.org/2000/svg">
  <g id="line">
    <path id="Tooth_Line_1" fill="none" stroke="#FFA500" stroke-miterlimit="10" stroke-width="2" d="M56.8463,18.7956a11.6415,11.6415,0,0,0-10.55-5.0124c-4.808.5457-6.061,2.7647-10.3573,3.1882-4.2963-.4234-5.5494-2.6425-10.3574-3.1882a11.6418,11.6418,0,0,0-10.55,5.0124C12.2738,23.008,12.8791,29.3,16.8442,34.1143A6.0923,6.0923,0,0,1,18.2876,37.74c.2378,6.1213,1.402,23.3418,6.9884,24.5078,4.3092.8994,2.0308-19.6965,10.663-19.43,8.6321-.2667,6.3537,20.3292,10.6628,19.43,5.5865-1.166,6.7508-18.3865,6.9885-24.5078a6.0917,6.0917,0,0,1,1.4434-3.6257C58.9988,29.3,59.6042,23.008,56.8463,18.7956Z"/>
  </g>
</svg>
</svg>
