<svg id="hexo" viewBox="0 0 128 128" xmlns="http://www.w3.org/2000/svg">
  <g id="border">
    <path stroke="#FFA500" fill="none" stroke-width="1" d="m62.11167,10.03457c1.16887,-0.67782 2.60778,-0.67782 3.77665,0l43.64866,25.33943c1.16887,0.67782 1.88833,1.93093 1.88833,3.28847l0,50.67505c0,1.35754 -0.71945,2.61064 -1.88833,3.28847l-43.64866,25.33943c-1.16887,0.67782 -2.60778,0.67782 -3.77665,0l-43.64866,-25.33943c-1.16887,-0.67782 -1.88833,-1.93093 -1.88833,-3.28847l0,-50.67505c0,-1.35754 0.71945,-2.61064 1.88833,-3.28847l43.64866,-25.33943z" id="svg_1"/>
  </g>
  <svg id="emoji" x="28" y="28" viewBox="0 0 128 128" xmlns="http://www.w3.org/2000/svg">  <g id="line">
    <path fill="#FFA500" d="M52.9805,35.59c-6.0654,0-11,4.9346-11,11s4.9346,11,11,11s11-4.9346,11-11S59.0459,35.59,52.9805,35.59z M56.9805,46.59 c0,2.2061-1.7939,4-4,4s-4-1.7939-4-4s1.7939-4,4-4S56.9805,44.3839,56.9805,46.59z"/>
    <path fill="#FFA500" d="M15.02,45.59c-3.3086,0-6,2.6914-6,6s2.6914,6,6,6s6-2.6914,6-6S18.3286,45.59,15.02,45.59z M15.02,53.59 c-1.103,0-2-0.8975-2-2s0.897-2,2-2s2,0.8975,2,2S16.123,53.59,15.02,53.59z"/>
    <polyline fill="none" stroke="#FFA500" stroke-linecap="round" stroke-linejoin="round" stroke-miterlimit="10" stroke-width="2" points="26.682,32.2999 26.682,28.3643 29.8486,28.3643 29.8486,31.8513"/>
    <path stroke="#FFA500" stroke-linecap="round" stroke-linejoin="round" stroke-miterlimit="10" stroke-width="2" d="M29.5,52.25"/>
    <path fill="none" stroke="#FFA500" stroke-linecap="round" stroke-linejoin="round" stroke-miterlimit="10" stroke-width="2" d="M26.682,32.2999c-5.1431,0.7998-11.7743,2.1973-14.4066,4.3368c-0.2664,0.2165-0.4129,0.5443-0.3812,0.8861l0.6871,6.5445"/>
    <path fill="none" stroke="#FFA500" stroke-linecap="round" stroke-linejoin="round" stroke-miterlimit="10" stroke-width="2" d="M29.8486,31.8513C28.9085,31.972,27.8325,32.121,26.682,32.3"/>
    <path fill="none" stroke="#FFA500" stroke-linecap="round" stroke-linejoin="round" stroke-miterlimit="10" stroke-width="2" d="M52.8185,30.467c-0.3456-3.6951-0.8852-8.0548-1.7199-10.1861c0,0-10.8333-1.1666-17.1666,0.5834l-0.5,10.5833 c0,0-1.4378,0.1282-3.5834,0.4037"/>
    <line x1="22.5153" x2="40.3521" y1="50.5309" y2="50.5309" fill="none" stroke="#FFA500" stroke-linecap="round" stroke-linejoin="round" stroke-miterlimit="10" stroke-width="2"/>
    <path fill="none" stroke="#FFA500" stroke-linecap="round" stroke-linejoin="round" stroke-miterlimit="10" stroke-width="2" d="M40.3521,43.4723c1.537-6.9462,8.414-11.3309,15.36-9.7939c2.792,0.6178,5.1703,2.0984,6.9165,4.0996"/>
    <path fill="none" stroke="#FFA500" stroke-linecap="round" stroke-linejoin="round" stroke-miterlimit="10" stroke-width="2" d="M48.9672,23.6688c0,0-5.919-0.8771-11.669,0.2895l-0.2845,13.4635h2.5016c0,0,2.875-4.6409,9.5223-6.8492L48.9672,23.6688z"/>
    <path stroke="#FFA500" stroke-linecap="round" stroke-linejoin="round" stroke-miterlimit="10" stroke-width="2" d="M28.1193,28.3643c0,0,0.3381-3.5834-1.2846-3.5834"/>
    <path fill="none" stroke="#FFA500" stroke-linecap="round" stroke-linejoin="round" stroke-miterlimit="10" stroke-width="2" d="M37.0168,37.2787h2.6602c0,0,2.7485-4.8599,9.3606-6.7061"/>
    <path fill="none" stroke="#FFA500" stroke-linecap="round" stroke-linejoin="round" stroke-miterlimit="10" stroke-width="2" d="M17.044,38.0151v2.12c0,0.55-0.4501,1-1,1h-1"/>
  </g>
</svg>
</svg>
