<svg id="hexo" viewBox="0 0 128 128" xmlns="http://www.w3.org/2000/svg">
  <g id="border">
    <path stroke="#FFA500" fill="none" stroke-width="1" d="m62.11167,10.03457c1.16887,-0.67782 2.60778,-0.67782 3.77665,0l43.64866,25.33943c1.16887,0.67782 1.88833,1.93093 1.88833,3.28847l0,50.67505c0,1.35754 -0.71945,2.61064 -1.88833,3.28847l-43.64866,25.33943c-1.16887,0.67782 -2.60778,0.67782 -3.77665,0l-43.64866,-25.33943c-1.16887,-0.67782 -1.88833,-1.93093 -1.88833,-3.28847l0,-50.67505c0,-1.35754 0.71945,-2.61064 1.88833,-3.28847l43.64866,-25.33943z" id="svg_1"/>
  </g>
  <svg id="emoji" x="28" y="28" viewBox="0 0 128 128" xmlns="http://www.w3.org/2000/svg">
  <g id="line">
    <path fill="none" stroke="#FFA500" stroke-linecap="round" stroke-linejoin="round" stroke-miterlimit="10" stroke-width="2" d="M32.5222,13.005c0.6977-1.2046,1.9862-2.0244,3.4778-2.0244c1.4916,0,2.7801,0.8198,3.4778,2.0244l20.9678,41.9351 C60.7889,55.5339,61,56.2136,61,56.9483c0,2.2272-1.8051,4.0323-4.0323,4.0323l-41.9354,0.0173 C12.8051,60.9979,11,59.192,11,56.9657c0-0.7356,0.211-1.4145,0.5544-2.0083L32.5222,13.005"/>
    <path fill="none" stroke="#FFA500" stroke-linecap="round" stroke-linejoin="round" stroke-miterlimit="10" stroke-width="2" d="M37.6129,47.2709c0,0.8907-0.7222,1.6129-1.6129,1.6129c-0.8907,0-1.6129-0.7222-1.6129-1.6129V23.8925 c0-0.8907,0.7222-1.6129,1.6129-1.6129c0.8907,0,1.6129,0.7222,1.6129,1.6129V47.2709z"/>
    <circle cx="36" cy="54.529" r="1.6129" fill="none" stroke="#FFA500" stroke-linecap="round" stroke-linejoin="round" stroke-miterlimit="10" stroke-width="2"/>
  </g>
</svg>
</svg>
