<svg id="hexo" viewBox="0 0 128 128" xmlns="http://www.w3.org/2000/svg">
  <g id="border">
    <path stroke="#000000" fill="none" stroke-width="1" d="m62.11167,10.03457c1.16887,-0.67782 2.60778,-0.67782 3.77665,0l43.64866,25.33943c1.16887,0.67782 1.88833,1.93093 1.88833,3.28847l0,50.67505c0,1.35754 -0.71945,2.61064 -1.88833,3.28847l-43.64866,25.33943c-1.16887,0.67782 -2.60778,0.67782 -3.77665,0l-43.64866,-25.33943c-1.16887,-0.67782 -1.88833,-1.93093 -1.88833,-3.28847l0,-50.67505c0,-1.35754 0.71945,-2.61064 1.88833,-3.28847l43.64866,-25.33943z" id="svg_1"/>
  </g>
  <svg id="emoji" x="28" y="28" viewBox="0 0 128 128" xmlns="http://www.w3.org/2000/svg">
  <g id="line">
    <path fill="none" stroke="#000000" stroke-linecap="round" stroke-linejoin="round" stroke-miterlimit="10" stroke-width="2" d="M31,46v4c-3-3-3-7-3-7s8,7,16,0c0,0,1,5-3,7v-4"/>
    <path fill="none" stroke="#000000" stroke-linecap="round" stroke-linejoin="round" stroke-miterlimit="10" stroke-width="2" d="M27,23c0,0,7,2,9,8c0,0,2-7,10-8"/>
    <circle cx="29" cy="30" r="2" fill="#000000" stroke="none"/>
    <circle cx="43" cy="30" r="2" fill="#000000" stroke="none"/>
    <circle cx="34" cy="39" r="1" fill="#000000" stroke="none"/>
    <circle cx="38" cy="39" r="1" fill="#000000" stroke="none"/>
    <path fill="none" stroke="#000000" stroke-linecap="round" stroke-linejoin="round" stroke-miterlimit="10" stroke-width="2" d="M34,49c0,0,0,10-2,11c0,0,4-1,4-5c0,0,1,4,4,5c0,0-3-7-2-11"/>
    <path fill="none" stroke="#000000" stroke-linecap="round" stroke-linejoin="round" stroke-miterlimit="10" stroke-width="2" d="M22,38c0,0-4,0-7-5c0,0,3,1,6-1c0,0-5-3-7-7l7,2c0,0-4-2-3-11c0,0,1,4,5,5c0,0,4-6,10-6l3-4l3,4c0,0,6,0,10,6c0,0,3-1,5-5 c0,0,2,6-2,11l7-3c0,0,0,5-8,9c0,0,2,1,7,0c0,0-1,5-8,5"/>
    <path fill="none" stroke="#000000" stroke-linecap="round" stroke-linejoin="round" stroke-miterlimit="10" stroke-width="2" d="M25,39c0,0-1-3,5-2c0,0,6-5,12,0c0,0,5-1,5,2"/>
    <path fill="none" stroke="#000000" stroke-linecap="round" stroke-linejoin="round" stroke-miterlimit="10" stroke-width="2" d="M29,40c0,0-6-1-9,3s-6,4-8,2"/>
    <path fill="none" stroke="#000000" stroke-linecap="round" stroke-linejoin="round" stroke-miterlimit="10" stroke-width="2" d="M43,40c0,0,6-1,9,3s6,4,8,2"/>
    <path fill="none" stroke="#000000" stroke-linecap="round" stroke-linejoin="round" stroke-miterlimit="10" stroke-width="2" d="M23.3149,40.5713C23.3149,40.5713,22,51,30,54"/>
    <path fill="none" stroke="#000000" stroke-linecap="round" stroke-linejoin="round" stroke-miterlimit="10" stroke-width="2" d="M49.1888,40.7828C49.1888,40.7828,49,51,42,54"/>
    <path fill="none" stroke="#000000" stroke-linecap="round" stroke-linejoin="round" stroke-miterlimit="10" stroke-width="2" d="M31,46v4c-3-3-3-7-3-7s8,7,16,0c0,0,1,5-3,7v-4"/>
  </g>
</svg>
</svg>
