<svg id="hexo" viewBox="0 0 128 128" xmlns="http://www.w3.org/2000/svg">
  <g id="border">
    <path stroke="#000000" fill="none" stroke-width="1" d="m62.11167,10.03457c1.16887,-0.67782 2.60778,-0.67782 3.77665,0l43.64866,25.33943c1.16887,0.67782 1.88833,1.93093 1.88833,3.28847l0,50.67505c0,1.35754 -0.71945,2.61064 -1.88833,3.28847l-43.64866,25.33943c-1.16887,0.67782 -2.60778,0.67782 -3.77665,0l-43.64866,-25.33943c-1.16887,-0.67782 -1.88833,-1.93093 -1.88833,-3.28847l0,-50.67505c0,-1.35754 0.71945,-2.61064 1.88833,-3.28847l43.64866,-25.33943z" id="svg_1"/>
  </g>
  <svg id="emoji" x="28" y="28" viewBox="0 0 128 128" xmlns="http://www.w3.org/2000/svg">
  <g id="line">
    <path fill="none" stroke="#000000" stroke-linecap="round" stroke-linejoin="round" stroke-width="2" d="M36.2291,52.1048l1.6033-2.9724L34.56,48.2983l1.6033-2.9724L32.89,44.4918l1.6033-2.9724-3.2731-.8345,1.6035-2.9727-3.2727-.834,1.6033-2.9725-3.2727-.834,1.6033-2.9725-3.2727-.834,1.6033-2.9725-3.2727-.834,1.6033-2.9725-3.2727-.834L24.477,18.68l-3.2727-.8341,1.6033-2.9724-3.2731-.8346,1.6034-2.9726,6.0357-3.57L47.87,42.4886"/>
    <path fill="none" stroke="#000000" stroke-linecap="round" stroke-linejoin="round" stroke-width="2" d="M38.3093,54.5876l4.8068-7.5305a2.1045,2.1045,0,0,1,1.4986-.9541l5.7683-.7611a2.0017,2.0017,0,0,1,1.9849.9655l4.7473,8.0266a1.0436,1.0436,0,0,1-.367,1.4295l-.6281.3714a1.0435,1.0435,0,0,1-1.4294-.3669l-.5256-.8886-10.089,5.9671.5256.8886a1.0435,1.0435,0,0,1-.367,1.4294l-.6587.39a1.0436,1.0436,0,0,1-1.4295-.367L38.2743,56.64A1.96,1.96,0,0,1,38.3093,54.5876Z"/>
    <polyline fill="none" stroke="#000000" stroke-linecap="round" stroke-linejoin="round" stroke-width="2" points="52.21 51.568 51.201 49.861 41.97 55.321 42.979 57.028"/>
  </g>
</svg>
</svg>
