<svg id="hexo" viewBox="0 0 128 128" xmlns="http://www.w3.org/2000/svg">
  <g id="border">
    <path stroke="#000000" fill="none" stroke-width="1" d="m62.11167,10.03457c1.16887,-0.67782 2.60778,-0.67782 3.77665,0l43.64866,25.33943c1.16887,0.67782 1.88833,1.93093 1.88833,3.28847l0,50.67505c0,1.35754 -0.71945,2.61064 -1.88833,3.28847l-43.64866,25.33943c-1.16887,0.67782 -2.60778,0.67782 -3.77665,0l-43.64866,-25.33943c-1.16887,-0.67782 -1.88833,-1.93093 -1.88833,-3.28847l0,-50.67505c0,-1.35754 0.71945,-2.61064 1.88833,-3.28847l43.64866,-25.33943z" id="svg_1"/>
  </g>
  <svg id="emoji" x="28" y="28" viewBox="0 0 128 128" xmlns="http://www.w3.org/2000/svg">
  <g id="line-supplement" fill="#000000">
    <g>
      <circle cx="51" cy="47.9995" r="3"/>
      <circle cx="21" cy="47.9995" r="3"/>
    </g>
  </g>
  <g id="line">
    <path fill="#000000" d="M56.4082,43H15.5918c-2.8594,0-5.4453-3.4775-5.4658-3.5127a1,1,0,0,1,1.6963-1.0547C12.3477,39.1289,14.1855,41,15.5918,41H56.4082c1.4326,0,3.2725-1.9375,3.8037-2.6152a1,1,0,0,1,1.5772,1.23C61.5186,39.9609,59.0732,43,56.4082,43Z"/>
    <path fill="none" stroke="#000000" stroke-linecap="round" stroke-miterlimit="10" stroke-width="2" d="M52,46.2674a2,2,0,1,1-2,3.4641"/>
    <path fill="none" stroke="#000000" stroke-linecap="round" stroke-miterlimit="10" stroke-width="2" d="M22,46.2674a2,2,0,1,1-2,3.4641"/>
  </g>
</svg>
</svg>
