<svg id="hexo" viewBox="0 0 128 128" xmlns="http://www.w3.org/2000/svg">
  <g id="border">
    <path stroke="#000000" fill="none" stroke-width="1" d="m62.11167,10.03457c1.16887,-0.67782 2.60778,-0.67782 3.77665,0l43.64866,25.33943c1.16887,0.67782 1.88833,1.93093 1.88833,3.28847l0,50.67505c0,1.35754 -0.71945,2.61064 -1.88833,3.28847l-43.64866,25.33943c-1.16887,0.67782 -2.60778,0.67782 -3.77665,0l-43.64866,-25.33943c-1.16887,-0.67782 -1.88833,-1.93093 -1.88833,-3.28847l0,-50.67505c0,-1.35754 0.71945,-2.61064 1.88833,-3.28847l43.64866,-25.33943z" id="svg_1"/>
  </g>
  <svg id="emoji" x="28" y="28" viewBox="0 0 128 128" xmlns="http://www.w3.org/2000/svg">
  <g id="line">
    <path id="Swan_Line_1" fill="none" stroke="#000000" stroke-linecap="round" stroke-linejoin="round" stroke-width="2" d="M27.1986,41.0877c3.045-.91,8.4833-7.14,19.8118-2.7989,8.2484,3.1606,12.9832-2.8445,12.9832-2.8445S57.8916,57.793,47.4045,60.3609c-7.2623,1.7782-22.7242,2.1761-28.0357,0-9.18-3.7611-8.2246-15.4921-5.3956-20.54,2.911-5.1941,10.142-8.5786,10.2681-19.3019"/>
    <path id="Swan_Line_2" fill="none" stroke="#000000" stroke-linecap="round" stroke-linejoin="round" stroke-width="2" d="M23.77,43.5077c.71-12.0817,7.0657-20.416,6.1609-26.3062-.6954-4.5273-3.7741-7.76-8.2922-6.3379-3.1468.99-7.0343,9.2494-7.0343,9.2494,2.9462,1.17,7.426-2.1242,7.426-2.1242"/>
    <path id="Swan_Line_3" fill="none" stroke="#000000" stroke-linecap="round" stroke-linejoin="round" stroke-width="2" d="M49.6121,44.31c-2.1331,3.4989-11.9,5.3058-16.6525,5.4247"/>
  </g>
</svg>
</svg>
