<svg id="hexo" viewBox="0 0 128 128" xmlns="http://www.w3.org/2000/svg">
  <g id="border">
    <path stroke="#FF0000" fill="none" stroke-width="1" d="m62.11167,10.03457c1.16887,-0.67782 2.60778,-0.67782 3.77665,0l43.64866,25.33943c1.16887,0.67782 1.88833,1.93093 1.88833,3.28847l0,50.67505c0,1.35754 -0.71945,2.61064 -1.88833,3.28847l-43.64866,25.33943c-1.16887,0.67782 -2.60778,0.67782 -3.77665,0l-43.64866,-25.33943c-1.16887,-0.67782 -1.88833,-1.93093 -1.88833,-3.28847l0,-50.67505c0,-1.35754 0.71945,-2.61064 1.88833,-3.28847l43.64866,-25.33943z" id="svg_1"/>
  </g>
  <svg id="emoji" x="28" y="28" viewBox="0 0 128 128" xmlns="http://www.w3.org/2000/svg">
  <g id="line">
    <path fill="none" stroke="#FF0000" stroke-linecap="round" stroke-linejoin="round" stroke-miterlimit="10" stroke-width="2" d="M8,48"/>
    <line x1="29" x2="33" y1="52" y2="52" fill="none" stroke="#FF0000" stroke-linecap="round" stroke-linejoin="round" stroke-miterlimit="10" stroke-width="2"/>
    <path fill="none" stroke="#FF0000" stroke-linecap="round" stroke-linejoin="round" stroke-miterlimit="10" stroke-width="2" d="M46,52c0,0,17,2,19,0v-1c0,0,3-3,1-4s-5,0-5,0s-2.9167-1.3333-6.4583-4.6667C54.5417,42.3333,53,41,51,43c0,0-2-3-8-3s-24,1-24,1 s-6-1,0-3s11-2,12,0c0,0-2.6667-8.4167-17.3333-5.2083C13.6667,32.7917,1,36,8,48c0,0,2,4,8,4"/>
    <path fill="none" stroke="#FF0000" stroke-linecap="round" stroke-linejoin="round" stroke-miterlimit="10" stroke-width="2" d="M23,47c0,0-4.8121,4-3.406,5S23,55,23,55h4l-3.0324-3c0,0,2.0324-1,3.0324-3s0-3.2403,0-3.2403"/>
    <path fill="none" stroke="#FF0000" stroke-linecap="round" stroke-linejoin="round" stroke-miterlimit="10" stroke-width="2" d="M40,47c0,0-4.8121,4-3.406,5S40,55,40,55h4l-3.0324-3c0,0,2.0324-1,3.0324-3s0-3.2403,0-3.2403"/>
  </g>
</svg>
</svg>
