<svg id="hexo" viewBox="0 0 128 128" xmlns="http://www.w3.org/2000/svg">
  <g id="border">
    <path stroke="#FF0000" fill="none" stroke-width="1" d="m62.11167,10.03457c1.16887,-0.67782 2.60778,-0.67782 3.77665,0l43.64866,25.33943c1.16887,0.67782 1.88833,1.93093 1.88833,3.28847l0,50.67505c0,1.35754 -0.71945,2.61064 -1.88833,3.28847l-43.64866,25.33943c-1.16887,0.67782 -2.60778,0.67782 -3.77665,0l-43.64866,-25.33943c-1.16887,-0.67782 -1.88833,-1.93093 -1.88833,-3.28847l0,-50.67505c0,-1.35754 0.71945,-2.61064 1.88833,-3.28847l43.64866,-25.33943z" id="svg_1"/>
  </g>
  <svg id="emoji" x="28" y="28" viewBox="0 0 128 128" xmlns="http://www.w3.org/2000/svg">
  <g id="line">
    <polygon fill="none" stroke="#FF0000" stroke-linecap="round" stroke-linejoin="round" stroke-width="2" points="37.877 21.5 37.848 43.552 39.05 47.175 39.025 62.881 37.817 62.883 34.193 62.889 32.984 62.891 33.009 47.185 34.223 43.558 34.252 21.5 37.877 21.5"/>
    <path fill="none" stroke="#FF0000" stroke-linecap="round" stroke-linejoin="round" stroke-width="2" d="M29.7035,11.6v9.9H42.4314V15.8424s8.4853,0,11.3137,2.8284A15.1442,15.1442,0,0,0,42.4314,11.6,60.523,60.523,0,0,0,29.7035,11.6Z"/>
    <path fill="none" stroke="#FF0000" stroke-linecap="round" stroke-linejoin="round" stroke-width="2" d="M25.89,12.4785l-.0319,8.02h0a3.3363,3.3363,0,0,1-3.7013.0147h0l.0319-8.0195h0a2.6172,2.6172,0,0,1,3.7013-.0147Z"/>
  </g>
</svg>
</svg>
