<svg id="hexo" viewBox="0 0 128 128" xmlns="http://www.w3.org/2000/svg">
  <g id="border">
    <path stroke="#FF0000" fill="none" stroke-width="1" d="m62.11167,10.03457c1.16887,-0.67782 2.60778,-0.67782 3.77665,0l43.64866,25.33943c1.16887,0.67782 1.88833,1.93093 1.88833,3.28847l0,50.67505c0,1.35754 -0.71945,2.61064 -1.88833,3.28847l-43.64866,25.33943c-1.16887,0.67782 -2.60778,0.67782 -3.77665,0l-43.64866,-25.33943c-1.16887,-0.67782 -1.88833,-1.93093 -1.88833,-3.28847l0,-50.67505c0,-1.35754 0.71945,-2.61064 1.88833,-3.28847l43.64866,-25.33943z" id="svg_1"/>
  </g>
  <svg id="emoji" x="28" y="28" viewBox="0 0 128 128" xmlns="http://www.w3.org/2000/svg">
  <g id="line">
    <path fill="none" stroke="#FF0000" stroke-linecap="round" stroke-linejoin="round" stroke-miterlimit="10" stroke-width="2" d="M15.661,35.5399c0,0-0.201,5.0192,4.9803,8.9725l2.9011,1.7458c0,0-0.9857,7.4544-0.9581,11.4135 c0.0065,0.9269,0.0723,1.5872,3.2907,1.7079h9.6223c0,0,2.4297,0.1463,2.4769-1.4407c0.0894-3.0038,0-11.8463,0-11.8463 s2.8109-2.3107,3.4363-3.3459c0,0,2.8044-3.9765,1.6135-7.0315c0,0-0.93-0.1194-4.1375-0.1263l-18.8161-0.0401L15.661,35.5399z"/>
    <path fill="none" stroke="#FF0000" stroke-linecap="round" stroke-linejoin="round" stroke-miterlimit="10" stroke-width="2" d="M38.1354,30.0615H16.4951c0,0-0.9323,0.0764-0.8214,1.6588"/>
    <path fill="none" stroke="#FF0000" stroke-linecap="round" stroke-linejoin="round" stroke-miterlimit="10" stroke-width="2" d="M42.0698,59.2955h6.9469c-2.6901-9.2639-1.7826-17.3885-1.7826-17.3885s0.1739-4.8033,3.4783-5.8033c0,0,3.7391-1.087,5-1.8261 V16.893H42.1083v14.1367"/>
    <line x1="42" x2="55.9655" y1="12.875" y2="12.875" fill="none" stroke="#FF0000" stroke-linecap="round" stroke-linejoin="round" stroke-miterlimit="10" stroke-width="2"/>
  </g>
</svg>
</svg>
